<?xml version="1.0" encoding="UTF-8" standalone="no"?>
<svg width="28px" height="29px" viewBox="0 0 28 29" version="1.1" xmlns="http://www.w3.org/2000/svg" xmlns:xlink="http://www.w3.org/1999/xlink" xmlns:sketch="http://www.bohemiancoding.com/sketch/ns">
    <!-- Generator: Sketch 3.2.2 (9983) - http://www.bohemiancoding.com/sketch -->
    <title>v</title>
    <desc>Created with Sketch.</desc>
    <defs></defs>
    <g id="Page-1" stroke="none" stroke-width="1" fill="none" fill-rule="evenodd" sketch:type="MSPage">
        <g id="v" sketch:type="MSArtboardGroup" fill="#1A1918">
            <g id="Group" sketch:type="MSLayerGroup" transform="translate(-1.000000, 0.000000)">
                <path d="M12.2574611,27.3042632 C7.30196407,27.3042632 3.09492216,24.7980526 0.579449102,21.0524737 L0.579449102,28.7451053 L20.0075928,28.7451053 L20.0075928,25.0544737 C17.9191617,26.4449474 15.4383952,27.3042632 12.2574611,27.3042632" id="Fill-1" sketch:type="MSShapeGroup"></path>
                <path d="M4.92380838,0.152631579 L0.579449102,0.152631579 L0.579449102,4.37594737 C1.71269461,2.67563158 3.18847904,1.22868421 4.92380838,0.152631579" id="Fill-2" sketch:type="MSShapeGroup"></path>
                <path d="M23.0678084,3.59752632 C23.0678084,4.73310526 22.1578922,5.60005263 21.088024,5.60005263 C20.5523353,5.60005263 20.0709701,5.38331579 19.7495569,5.11315789 C17.7697725,3.27242105 15.5213892,1.75678947 12.2046467,1.75678947 C6.5851976,1.75678947 2.30421557,6.57384211 2.30421557,12.5814211 L2.30421557,12.6897895 C2.30421557,18.7523158 6.69233533,23.5693684 12.4717365,23.5693684 C15.542515,23.5693684 18.0036647,22.1865263 20.0075928,20.3167895 L20.0075928,11.7175263 C20.0075928,10.7452632 20.7862275,9.91036842 21.7489581,9.91036842 C22.7569581,9.91036842 23.5355928,10.6979474 23.5355928,11.7175263 L23.5355928,16.2125263 C24.7352335,13.4651579 26.7421796,11.4672105 28.8472096,10.4903684 L28.8472096,0.152631579 L19.8461317,0.152631579 C20.7892455,0.735684211 21.6403114,1.41031579 22.424982,2.13531579 C22.7463952,2.40547368 23.0678084,2.94731579 23.0678084,3.59752632" id="Fill-3" sketch:type="MSShapeGroup"></path>
                <path d="M23.5355928,24.3676316 L23.5355928,28.7451053 L28.8472096,28.7451053 L28.8472096,14.3031053 C25.7477605,15.7927895 23.5355928,19.0697895 23.5355928,24.3676316" id="Fill-4" sketch:type="MSShapeGroup"></path>
            </g>
        </g>
    </g>
</svg>