<?xml version="1.0" encoding="UTF-8" standalone="no"?>
<svg width="207px" height="13px" viewBox="0 0 207 13" version="1.1" xmlns="http://www.w3.org/2000/svg" xmlns:xlink="http://www.w3.org/1999/xlink" xmlns:sketch="http://www.bohemiancoding.com/sketch/ns">
    <!-- Generator: Sketch 3.2.2 (9983) - http://www.bohemiancoding.com/sketch -->
    <title>Artboard 3</title>
    <desc>Created with Sketch.</desc>
    <defs></defs>
    <g id="Page-1" stroke="none" stroke-width="1" fill="none" fill-rule="evenodd" sketch:type="MSPage">
        <g id="Artboard-3" sketch:type="MSArtboardGroup" fill="#1A1918">
            <g id="Group" sketch:type="MSLayerGroup">
                <path d="M9.60658683,12.0603684 C8.54577246,12.6067895 7.68263473,12.7151579 6.96435928,12.7151579 C4.75219162,12.7151579 3.25980838,11.952 2.25331737,10.9522632 C1.17439521,9.89605263 0.383688623,8.29647368 0.383688623,6.35042105 C0.383688623,4.441 1.17439521,2.84142105 2.25331737,1.78521053 C3.31413174,0.748842105 4.85932934,0.0406315789 6.73046707,0.0406315789 C7.52117365,0.0406315789 8.43863473,0.202421053 9.60658683,0.713736842 L9.60658683,3.95105263 C8.9954491,3.29473684 8.07798802,2.65826316 6.80138922,2.65826316 C5.7948982,2.65826316 4.98608383,2.98489474 4.35683832,3.60457895 C3.69137725,4.25936842 3.22359281,5.24078947 3.22359281,6.40536842 C3.22359281,7.66 3.72759281,8.55136842 4.2662994,9.07947368 C4.5182994,9.33284211 5.38143713,10.0975263 6.85571257,10.0975263 C7.57549701,10.0975263 8.54577246,9.89605263 9.60658683,8.84289474 L9.60658683,12.0603684" id="Fill-5" sketch:type="MSShapeGroup"></path>
                <path d="M23.366994,10.1509474 L18.835521,10.1509474 L17.9195689,12.4434737 L15.0419401,12.4434737 L19.8797365,0.312315789 L22.4148263,0.312315789 L27.1424671,12.4434737 L24.2663473,12.4434737 L23.366994,10.1509474 L23.366994,10.1509474 Z M22.612503,8.00494737 L21.1382275,3.93121053 L19.6458443,8.00494737 L22.612503,8.00494737 L22.612503,8.00494737 Z" id="Fill-6" sketch:type="MSShapeGroup"></path>
                <path d="M32.435976,12.4434737 L34.3599281,0.312315789 L36.6611257,0.312315789 L39.6458922,7.56842105 L42.6306587,0.312315789 L44.9318563,0.312315789 L46.8558084,12.4434737 L44.0868263,12.4434737 L43.1346587,5.20415789 L40.1317844,12.4434737 L39.16,12.4434737 L36.1571257,5.20415789 L35.2049581,12.4434737 L32.435976,12.4434737" id="Fill-7" sketch:type="MSShapeGroup"></path>
                <path d="M53.4802395,0.312315789 L56.2492216,0.312315789 L56.2492216,12.4419474 L53.4802395,12.4419474 L53.4802395,0.312315789 Z" id="Fill-8" sketch:type="MSShapeGroup"></path>
                <path d="M66.1949222,0.312315789 L66.1949222,10.0792105 L69.9175808,10.0792105 L69.9175808,12.4434737 L63.4259401,12.4434737 L63.4259401,0.312315789 L66.1949222,0.312315789" id="Fill-9" sketch:type="MSShapeGroup"></path>
                <path d="M78.7496527,0.312315789 L78.7496527,10.0792105 L82.4723114,10.0792105 L82.4723114,12.4434737 L75.9806707,12.4434737 L75.9806707,0.312315789 L78.7496527,0.312315789" id="Fill-10" sketch:type="MSShapeGroup"></path>
                <path d="M95.3152575,2.67657895 L91.3058922,2.67657895 L91.3058922,5.02252632 L95.1175808,5.02252632 L95.1175808,7.38678947 L91.3058922,7.38678947 L91.3058922,10.0792105 L95.3152575,10.0792105 L95.3152575,12.4434737 L88.5369102,12.4434737 L88.5369102,0.312315789 L95.3152575,0.312315789 L95.3152575,2.67657895" id="Fill-11" sketch:type="MSShapeGroup"></path>
                <path d="M114.957677,0.312315789 C116.484766,0.312315789 117.438443,0.822105263 118.013365,1.367 C118.517365,1.85847368 119.057581,2.73152632 119.057581,4.07773684 C119.057581,4.84089474 118.894611,5.78568421 118.122012,6.55036842 C117.708551,6.95026316 117.115521,7.31505263 116.45006,7.47836842 L120.134994,12.4434737 L116.754874,12.4434737 L113.518108,7.66 L113.518108,12.4434737 L110.749126,12.4434737 L110.749126,0.312315789 L114.957677,0.312315789 L114.957677,0.312315789 Z M113.518108,5.82384211 L114.148862,5.82384211 C114.651353,5.82384211 115.334922,5.76736842 115.802707,5.29573684 C116.000383,5.09578947 116.252383,4.71421053 116.252383,4.11284211 C116.252383,3.42294737 115.927952,3.05968421 115.69406,2.87652632 C115.244383,2.53157895 114.526108,2.49494737 114.165461,2.49494737 L113.518108,2.49494737 L113.518108,5.82384211 L113.518108,5.82384211 Z" id="Fill-12" sketch:type="MSShapeGroup"></path>
                <path d="M133.411018,10.1509474 L128.879545,10.1509474 L127.962084,12.4434737 L125.085964,12.4434737 L129.922251,0.312315789 L132.457341,0.312315789 L137.186491,12.4434737 L134.308862,12.4434737 L133.411018,10.1509474 L133.411018,10.1509474 Z M132.655018,8.00494737 L131.180743,3.93121053 L129.688359,8.00494737 L132.655018,8.00494737 L132.655018,8.00494737 Z" id="Fill-13" sketch:type="MSShapeGroup"></path>
                <path d="M143.466874,0.312315789 L146.505964,8.07821053 L149.543545,0.312315789 L152.528311,0.312315789 L147.440024,12.4434737 L145.570395,12.4434737 L140.482108,0.312315789 L143.466874,0.312315789" id="Fill-14" sketch:type="MSShapeGroup"></path>
                <path d="M158.469174,0.312315789 L161.238156,0.312315789 L161.238156,12.4419474 L158.469174,12.4419474 L158.469174,0.312315789 Z" id="Fill-15" sketch:type="MSShapeGroup"></path>
                <path d="M175.464838,10.1509474 L170.933365,10.1509474 L170.015904,12.4434737 L167.139784,12.4434737 L171.976072,0.312315789 L174.511162,0.312315789 L179.238802,12.4434737 L176.362683,12.4434737 L175.464838,10.1509474 L175.464838,10.1509474 Z M174.708838,8.00494737 L173.234563,3.93121053 L171.74218,8.00494737 L174.708838,8.00494737 L174.708838,8.00494737 Z" id="Fill-16" sketch:type="MSShapeGroup"></path>
                <path d="M189.296168,0.312315789 C190.824766,0.312315789 191.778443,0.822105263 192.353365,1.367 C192.857365,1.85847368 193.396072,2.73152632 193.396072,4.07773684 C193.396072,4.84089474 193.234611,5.78568421 192.460503,6.55036842 C192.047042,6.95026316 191.454012,7.31505263 190.788551,7.47836842 L194.474994,12.4434737 L191.094874,12.4434737 L187.858108,7.66 L187.858108,12.4434737 L185.089126,12.4434737 L185.089126,0.312315789 L189.296168,0.312315789 L189.296168,0.312315789 Z M187.858108,5.82384211 L188.487353,5.82384211 C188.991353,5.82384211 189.673413,5.76736842 190.141198,5.29573684 C190.338874,5.09578947 190.590874,4.71421053 190.590874,4.11284211 C190.590874,3.42294737 190.267952,3.05968421 190.03406,2.87652632 C189.584383,2.53157895 188.864599,2.49494737 188.505461,2.49494737 L187.858108,2.49494737 L187.858108,5.82384211 L187.858108,5.82384211 Z" id="Fill-17" sketch:type="MSShapeGroup"></path>
                <path d="M204.334683,2.67657895 L204.334683,12.4434737 L201.565701,12.4434737 L201.565701,2.67657895 L198.95818,2.67657895 L198.95818,0.312315789 L206.940695,0.312315789 L206.940695,2.67657895 L204.334683,2.67657895" id="Fill-18" sketch:type="MSShapeGroup"></path>
            </g>
        </g>
    </g>
</svg>